<svg xmlns="http://www.w3.org/2000/svg" width="327.485" height="65.371" viewBox="0 0 327.485 65.371">
  <g id="Group_343" data-name="Group 343" transform="translate(-219 -96.817)">
    <g id="Group_35" data-name="Group 35" transform="translate(304.706 144.652)">
      <path id="Path_43" data-name="Path 43" d="M121.623,183.55l2.344,6.289,6.705.286-5.257,4.173,1.8,6.466-5.593-3.71-5.593,3.71,1.8-6.466-5.257-4.173,6.705-.286Z" transform="translate(-112.574 -183.55)" fill="#dd131a"/>
      <path id="Path_44" data-name="Path 44" d="M121.623,183.55l2.344,6.289,6.705.286-5.257,4.173,1.8,6.466-5.593-3.71-5.593,3.71,1.8-6.466-5.257-4.173,6.705-.286Z" transform="translate(-84.938 -183.55)" fill="#dd131a"/>
      <path id="Path_45" data-name="Path 45" d="M121.623,183.55l2.344,6.289,6.705.286-5.257,4.173,1.8,6.466-5.593-3.71-5.593,3.71,1.8-6.466-5.257-4.173,6.705-.286Z" transform="translate(-57.302 -183.55)" fill="#dd131a"/>
    </g>
    <path id="Path_46" data-name="Path 46" d="M6266.871,2727.651v-35.036h-65.044V2734.3h11.68v-30.006h41.686v11.677h-30.009v30.008h-23.356v11.679h35.035v-21.751l21.75,21.751h8.259V2749.4l-18.912-18.913-2.839-2.837Z" transform="translate(-5982.827 -2595.47)" fill="#dd131a" fill-rule="evenodd"/>
    <g id="Group_336" data-name="Group 336" transform="translate(304.738 96.817)">
      <path id="Path_975" data-name="Path 975" d="M-189.864,605.936a3.667,3.667,0,0,0-1.273-2.974,15.459,15.459,0,0,0-4.473-2.205,41.421,41.421,0,0,1-5.232-2.206q-6.61-3.444-6.61-9.466a8.835,8.835,0,0,1,1.647-5.291,10.71,10.71,0,0,1,4.66-3.568,17.209,17.209,0,0,1,6.773-1.276,15.084,15.084,0,0,1,6.575,1.388,10.579,10.579,0,0,1,4.519,3.953,10.784,10.784,0,0,1,1.612,5.861h-8.175a4.5,4.5,0,0,0-1.273-3.42,4.786,4.786,0,0,0-3.445-1.214,5.365,5.365,0,0,0-3.469,1.028,3.217,3.217,0,0,0-1.273,2.615,3.219,3.219,0,0,0,1.4,2.515A17.194,17.194,0,0,0-192.97,594a29.306,29.306,0,0,1,5.793,2.589q5.512,3.371,5.512,9.293a9.013,9.013,0,0,1-3.363,7.435q-3.364,2.7-9.226,2.7a17.4,17.4,0,0,1-7.486-1.574,11.449,11.449,0,0,1-5.045-4.312,11.743,11.743,0,0,1-1.693-6.307h8.222a5.731,5.731,0,0,0,1.413,4.275q1.413,1.375,4.59,1.375a5.055,5.055,0,0,0,3.212-.929A3.138,3.138,0,0,0-189.864,605.936Z" transform="translate(208.479 -578.949)" fill="#232323"/>
      <path id="Path_976" data-name="Path 976" d="M-30.044,602.117H-42.938v8.638h15.229v6.7H-51.136V581.318h23.474v6.727H-42.938v7.62h12.893Z" transform="translate(82.154 -580.851)" fill="#232323"/>
      <path id="Path_977" data-name="Path 977" d="M113.047,617.457H104.9L92.843,594.969v22.487h-8.2V581.318h8.2l12.029,22.487V581.318h8.175Z" transform="translate(-26.859 -580.851)" fill="#232323"/>
      <path id="Path_978" data-name="Path 978" d="M265.722,610.705H254.487l-1.962,6.751h-8.759l12.473-36.139h7.708l12.566,36.139h-8.806Zm-9.273-6.726h7.311l-3.667-12.534Z" transform="translate(-154.612 -580.851)" fill="#232323"/>
      <path id="Path_979" data-name="Path 979" d="M427.877,588.045H417.67v29.412h-8.2V588.045h-10.02v-6.727h28.426Z" transform="translate(-279.605 -580.851)" fill="#232323"/>
      <path id="Path_980" data-name="Path 980" d="M582.76,598.229a22.388,22.388,0,0,1-1.845,9.343,14.219,14.219,0,0,1-5.244,6.257,13.966,13.966,0,0,1-7.743,2.193,13.783,13.783,0,0,1-12.951-8.178A21.7,21.7,0,0,1,553,598.8v-2.032a22.481,22.481,0,0,1,1.834-9.355,13.845,13.845,0,0,1,13.045-8.463,13.931,13.931,0,0,1,7.708,2.181,14.431,14.431,0,0,1,5.267,6.208,21.826,21.826,0,0,1,1.9,9.231Zm-8.338-1.512q0-5.377-1.693-8.166a5.364,5.364,0,0,0-4.847-2.788q-6.166,0-6.517,9.813l-.023,2.652q0,5.3,1.658,8.153a5.358,5.358,0,0,0,4.928,2.85,5.3,5.3,0,0,0,4.788-2.8q1.682-2.8,1.705-8.054Z" transform="translate(-402.886 -578.949)" fill="#232323"/>
      <path id="Path_981" data-name="Path 981" d="M738.032,604.674h-4.438v12.782h-8.2V581.318H738.78q6.049,0,9.46,2.852a9.92,9.92,0,0,1,3.41,8.058,12.314,12.314,0,0,1-1.437,6.248,10.387,10.387,0,0,1-4.5,4.017l7.1,14.592v.373h-8.782Zm-4.438-6.7h5.185a4.5,4.5,0,0,0,3.515-1.306,5.248,5.248,0,0,0,1.18-3.645,5.308,5.308,0,0,0-1.191-3.67,4.459,4.459,0,0,0-3.5-1.331h-5.185Z" transform="translate(-541.294 -580.851)" fill="#232323"/>
      <path id="Path_982" data-name="Path 982" d="M879.7,597l6.26-15.687h8.852l-10.955,23.157v12.981h-8.315V604.475l-10.931-23.157h8.806Z" transform="translate(-653.065 -580.851)" fill="#232323"/>
    </g>
  </g>
</svg>
